<?xml version="1.0" encoding="UTF-8"?>
<svg id="Layer_1" xmlns="http://www.w3.org/2000/svg" xmlns:xlink="http://www.w3.org/1999/xlink" version="1.1" viewBox="61 49 390 390">
  <!-- Generator: Adobe Illustrator 30.4.0, SVG Export Plug-In . SVG Version: 2.1.4 Build 226)  -->
  <defs>
    <style>
      .st0 {
        fill: none;
      }

      .st1 {
        fill: #ede9fe;
      }

      .st2 {
        fill: #f8fafc;
      }

      .st3 {
        fill: #fff;
      }

      .st4 {
        fill: #0d9488;
      }

      .st5 {
        clip-path: url(#clippath);
      }

      .st6 {
        fill: #7c3aed;
      }
    </style>
    <clipPath id="clippath">
      <path class="st0" d="M153.6,83.78c-46.27,0-83.78,37.51-83.78,83.78h0v93.09c0,46.27,37.51,83.78,83.78,83.78h204.8c46.27,0,83.78-37.51,83.78-83.78h0v-93.09c0-46.27-37.51-83.78-83.78-83.78h-204.8ZM225,344.44l-75,60.56,30,-60.56h45Z"/>
    </clipPath>
  </defs>
  
  <g class="st5">
    <g id="bubble-fills">
      <path id="fill-violet" class="st6" d="M-46.55,46.55l302.55,18.62c74.47,65.16,74.47,130.33,0,190.84s-74.47,125.67,0,209.45H-46.55V46.55Z"/>
      <path id="fill-teal" class="st4" d="M558.55,46.55l-302.55,18.62c74.47,65.16,74.47,130.33,0,190.84s-74.47,125.67,0,209.45h302.55V46.55Z"/>
    </g>
  </g>
  <g id="script-a-lines">
    <path id="script-a-line-1" class="st1" d="M116.48,128.67h95.1c4.63,0,8.39,3.13,8.39,6.98h0c0,3.86-3.76,6.98-8.39,6.98h-95.1c-4.63,0-8.39-3.13-8.39-6.98h0c0-3.86,3.76-6.98,8.39-6.98Z"/>
    <path id="script-a-line-2" class="st1" d="M115.07,164.72h51.2c3.86,0,6.98,3.13,6.98,6.98h0c0,3.86-3.13,6.98-6.98,6.98h-51.2c-3.86,0-6.98-3.13-6.98-6.98h0c0-3.86,3.13-6.98,6.98-6.98Z"/>
    <path id="script-a-line-3" class="st1" d="M113.86,200.76h76.98c3.19,0,5.77,3.13,5.77,6.98h0c0,3.86-2.58,6.98-5.77,6.98h-76.98c-3.19,0-5.77-3.13-5.77-6.98h0c0-3.86,2.58-6.98,5.77-6.98Z"/>
  </g>
  <g id="script-b-marks">
    <path id="script-b-mark-1" class="st3" d="M335.13,214.11h0c5.14,0,9.31,4.17,9.31,9.31v74.47c0,5.14-4.17,9.31-9.31,9.31h0c-5.14,0-9.31-4.17-9.31-9.31v-74.47c0-5.14,4.17-9.31,9.31-9.31Z"/>
    <path id="script-b-mark-2" class="st3" d="M371.17,240.03h0c5.14,0,9.31,5.34,9.31,11.92v59.62c0,6.58-4.17,11.92-9.31,11.92h0c-5.14,0-9.31-5.34-9.31-11.92v-59.62c0-6.58,4.17-11.92,9.31-11.92Z"/>
    <path id="script-b-mark-3" class="st3" d="M407.22,207.13h0c5.14,0,9.31,4.17,9.31,9.31v65.16c0,5.14-4.17,9.31-9.31,9.31h0c-5.14,0-9.31-4.17-9.31-9.31v-65.16c0-5.14,4.17-9.31,9.31-9.31Z"/>
  </g>
</svg>